<?xml version="1.0" encoding="UTF-8" standalone="no"?>
<!DOCTYPE svg PUBLIC "-//W3C//DTD SVG 1.1//EN"
 "http://www.w3.org/Graphics/SVG/1.1/DTD/svg11.dtd">
<!-- Generated by graphviz version 2.43.0 (0)
 -->
<!-- Title: G Pages: 1 -->
<svg width="3103pt" height="743pt"
 viewBox="0.00 0.00 3103.00 742.79" xmlns="http://www.w3.org/2000/svg" xmlns:xlink="http://www.w3.org/1999/xlink">
<g id="graph0" class="graph" transform="scale(1 1) rotate(0) translate(4 738.79)">
<title>G</title>
<polygon fill="white" stroke="transparent" points="-4,4 -4,-738.79 3099,-738.79 3099,4 -4,4"/>
<g id="clust1" class="cluster">
<title>cluster_module.eks</title>
<polygon fill="none" stroke="black" points="766,-410 766,-647 2221,-647 2221,-410 766,-410"/>
<text text-anchor="middle" x="1493.5" y="-631.8" font-family="sans-serif" font-size="14.00">module.eks</text>
</g>
<g id="clust2" class="cluster">
<title>cluster_module.iam</title>
<polygon fill="none" stroke="black" points="8,-426 8,-609 746,-609 746,-426 8,-426"/>
<text text-anchor="middle" x="377" y="-593.8" font-family="sans-serif" font-size="14.00">module.iam</text>
</g>
<g id="clust3" class="cluster">
<title>cluster_module.observability</title>
<polygon fill="none" stroke="black" points="1959,-253 1959,-402 3087,-402 3087,-253 1959,-253"/>
<text text-anchor="middle" x="2523" y="-386.8" font-family="sans-serif" font-size="14.00">module.observability</text>
</g>
<g id="clust4" class="cluster">
<title>cluster_module.vpc</title>
<polygon fill="none" stroke="black" points="401.5,-8 401.5,-245 2227,-245 2227,-8 401.5,-8"/>
<text text-anchor="middle" x="1314.25" y="-229.8" font-family="sans-serif" font-size="14.00">module.vpc</text>
</g>
<!-- module.eks.data.aws_eks_cluster_auth.main -->
<g id="node1" class="node">
<title>module.eks.data.aws_eks_cluster_auth.main</title>
<polygon fill="none" stroke="black" points="1906,-508 1678,-508 1678,-472 1906,-472 1906,-508"/>
<text text-anchor="middle" x="1792" y="-486.3" font-family="sans-serif" font-size="14.00">data.aws_eks_cluster_auth.main</text>
</g>
<!-- module.eks.aws_eks_cluster.main -->
<g id="node2" class="node">
<title>module.eks.aws_eks_cluster.main</title>
<polygon fill="none" stroke="black" points="1468.5,-454 1311.5,-454 1311.5,-418 1468.5,-418 1468.5,-454"/>
<text text-anchor="middle" x="1390" y="-432.3" font-family="sans-serif" font-size="14.00">aws_eks_cluster.main</text>
</g>
<!-- module.eks.data.aws_eks_cluster_auth.main&#45;&gt;module.eks.aws_eks_cluster.main -->
<g id="edge1" class="edge">
<title>module.eks.data.aws_eks_cluster_auth.main&#45;&gt;module.eks.aws_eks_cluster.main</title>
<path fill="none" stroke="black" d="M1678.76,-471.99C1658.24,-468.87 1636.99,-465.74 1617,-463 1571.52,-456.76 1520.78,-450.62 1478.91,-445.78"/>
<polygon fill="black" stroke="black" points="1479.08,-442.27 1468.75,-444.61 1478.28,-449.23 1479.08,-442.27"/>
</g>
<!-- module.eks.aws_iam_role_policy_attachment.eks_cluster_policy -->
<g id="node6" class="node">
<title>module.eks.aws_iam_role_policy_attachment.eks_cluster_policy</title>
<polygon fill="none" stroke="black" points="1127,-484 774,-484 774,-448 1127,-448 1127,-484"/>
<text text-anchor="middle" x="950.5" y="-462.3" font-family="sans-serif" font-size="14.00">aws_iam_role_policy_attachment.eks_cluster_policy</text>
</g>
<!-- module.eks.aws_eks_cluster.main&#45;&gt;module.eks.aws_iam_role_policy_attachment.eks_cluster_policy -->
<g id="edge2" class="edge">
<title>module.eks.aws_eks_cluster.main&#45;&gt;module.eks.aws_iam_role_policy_attachment.eks_cluster_policy</title>
<path fill="none" stroke="black" d="M1311.29,-441.33C1262.91,-444.65 1198.48,-449.06 1137.52,-453.24"/>
<polygon fill="black" stroke="black" points="1137.12,-449.76 1127.38,-453.94 1137.6,-456.75 1137.12,-449.76"/>
</g>
<!-- module.eks.aws_iam_role_policy_attachment.eks_service_policy -->
<g id="node8" class="node">
<title>module.eks.aws_iam_role_policy_attachment.eks_service_policy</title>
<polygon fill="none" stroke="black" points="1127,-565 774,-565 774,-529 1127,-529 1127,-565"/>
<text text-anchor="middle" x="950.5" y="-543.3" font-family="sans-serif" font-size="14.00">aws_iam_role_policy_attachment.eks_service_policy</text>
</g>
<!-- module.eks.aws_eks_cluster.main&#45;&gt;module.eks.aws_iam_role_policy_attachment.eks_service_policy -->
<g id="edge3" class="edge">
<title>module.eks.aws_eks_cluster.main&#45;&gt;module.eks.aws_iam_role_policy_attachment.eks_service_policy</title>
<path fill="none" stroke="black" d="M1311.36,-434.47C1266.39,-436.18 1209.63,-442.91 1163,-463 1143.87,-471.24 1145.31,-483.08 1127,-493 1101.18,-506.99 1071.21,-517.91 1043.42,-526.15"/>
<polygon fill="black" stroke="black" points="1042.34,-522.82 1033.7,-528.95 1044.27,-529.55 1042.34,-522.82"/>
</g>
<!-- module.vpc.aws_subnet.private -->
<g id="node32" class="node">
<title>module.vpc.aws_subnet.private</title>
<polygon fill="none" stroke="black" points="1022.5,-214 878.5,-214 878.5,-178 1022.5,-178 1022.5,-214"/>
<text text-anchor="middle" x="950.5" y="-192.3" font-family="sans-serif" font-size="14.00">aws_subnet.private</text>
</g>
<!-- module.eks.aws_eks_cluster.main&#45;&gt;module.vpc.aws_subnet.private -->
<g id="edge4" class="edge">
<title>module.eks.aws_eks_cluster.main&#45;&gt;module.vpc.aws_subnet.private</title>
<path fill="none" stroke="black" d="M1356.12,-417.96C1277.71,-374.95 1079.88,-266.43 993.24,-218.9"/>
<polygon fill="black" stroke="black" points="994.92,-215.83 984.47,-214.08 991.55,-221.96 994.92,-215.83"/>
</g>
<!-- module.vpc.aws_subnet.public -->
<g id="node33" class="node">
<title>module.vpc.aws_subnet.public</title>
<polygon fill="none" stroke="black" points="1019.5,-160 881.5,-160 881.5,-124 1019.5,-124 1019.5,-160"/>
<text text-anchor="middle" x="950.5" y="-138.3" font-family="sans-serif" font-size="14.00">aws_subnet.public</text>
</g>
<!-- module.eks.aws_eks_cluster.main&#45;&gt;module.vpc.aws_subnet.public -->
<g id="edge5" class="edge">
<title>module.eks.aws_eks_cluster.main&#45;&gt;module.vpc.aws_subnet.public</title>
<path fill="none" stroke="black" d="M1359.29,-417.88C1312.2,-387.87 1219.95,-323.73 1163,-249 1139.37,-217.99 1158.03,-192.61 1127,-169 1099.54,-148.11 1062.55,-140.33 1029.6,-138.18"/>
<polygon fill="black" stroke="black" points="1029.68,-134.68 1019.52,-137.69 1029.34,-141.67 1029.68,-134.68"/>
</g>
<!-- module.eks.aws_eks_node_group.main -->
<g id="node3" class="node">
<title>module.eks.aws_eks_node_group.main</title>
<polygon fill="none" stroke="black" points="1888,-616 1696,-616 1696,-580 1888,-580 1888,-616"/>
<text text-anchor="middle" x="1792" y="-594.3" font-family="sans-serif" font-size="14.00">aws_eks_node_group.main</text>
</g>
<!-- module.eks.aws_eks_node_group.main&#45;&gt;module.eks.aws_eks_cluster.main -->
<g id="edge6" class="edge">
<title>module.eks.aws_eks_node_group.main&#45;&gt;module.eks.aws_eks_cluster.main</title>
<path fill="none" stroke="black" d="M1695.79,-593.04C1680.14,-588.59 1665.1,-581.64 1653,-571 1615,-537.59 1656.22,-494.97 1617,-463 1578.99,-432.01 1524.71,-424.72 1478.88,-425.44"/>
<polygon fill="black" stroke="black" points="1478.53,-421.95 1468.63,-425.73 1478.73,-428.95 1478.53,-421.95"/>
</g>
<!-- module.eks.aws_iam_role_policy_attachment.ec2_container_registry_read_only -->
<g id="node5" class="node">
<title>module.eks.aws_iam_role_policy_attachment.ec2_container_registry_read_only</title>
<polygon fill="none" stroke="black" points="1617,-616 1163,-616 1163,-580 1617,-580 1617,-616"/>
<text text-anchor="middle" x="1390" y="-594.3" font-family="sans-serif" font-size="14.00">aws_iam_role_policy_attachment.ec2_container_registry_read_only</text>
</g>
<!-- module.eks.aws_eks_node_group.main&#45;&gt;module.eks.aws_iam_role_policy_attachment.ec2_container_registry_read_only -->
<g id="edge7" class="edge">
<title>module.eks.aws_eks_node_group.main&#45;&gt;module.eks.aws_iam_role_policy_attachment.ec2_container_registry_read_only</title>
<path fill="none" stroke="black" d="M1695.95,-598C1674.73,-598 1651.31,-598 1627.16,-598"/>
<polygon fill="black" stroke="black" points="1627.14,-594.5 1617.14,-598 1627.14,-601.5 1627.14,-594.5"/>
</g>
<!-- module.eks.aws_iam_role_policy_attachment.eks_cni_policy -->
<g id="node7" class="node">
<title>module.eks.aws_iam_role_policy_attachment.eks_cni_policy</title>
<polygon fill="none" stroke="black" points="1553,-562 1227,-562 1227,-526 1553,-526 1553,-562"/>
<text text-anchor="middle" x="1390" y="-540.3" font-family="sans-serif" font-size="14.00">aws_iam_role_policy_attachment.eks_cni_policy</text>
</g>
<!-- module.eks.aws_eks_node_group.main&#45;&gt;module.eks.aws_iam_role_policy_attachment.eks_cni_policy -->
<g id="edge8" class="edge">
<title>module.eks.aws_eks_node_group.main&#45;&gt;module.eks.aws_iam_role_policy_attachment.eks_cni_policy</title>
<path fill="none" stroke="black" d="M1695.81,-582.61C1670.25,-578.65 1642.59,-574.51 1617,-571 1597.91,-568.38 1577.89,-565.78 1558,-563.28"/>
<polygon fill="black" stroke="black" points="1558.28,-559.79 1547.93,-562.03 1557.42,-566.74 1558.28,-559.79"/>
</g>
<!-- module.eks.aws_iam_role_policy_attachment.eks_worker_node_policy -->
<g id="node9" class="node">
<title>module.eks.aws_iam_role_policy_attachment.eks_worker_node_policy</title>
<polygon fill="none" stroke="black" points="1587,-508 1193,-508 1193,-472 1587,-472 1587,-508"/>
<text text-anchor="middle" x="1390" y="-486.3" font-family="sans-serif" font-size="14.00">aws_iam_role_policy_attachment.eks_worker_node_policy</text>
</g>
<!-- module.eks.aws_eks_node_group.main&#45;&gt;module.eks.aws_iam_role_policy_attachment.eks_worker_node_policy -->
<g id="edge9" class="edge">
<title>module.eks.aws_eks_node_group.main&#45;&gt;module.eks.aws_iam_role_policy_attachment.eks_worker_node_policy</title>
<path fill="none" stroke="black" d="M1695.78,-589.65C1680.65,-585.5 1665.8,-579.53 1653,-571 1629,-555 1641.58,-532.1 1617,-517 1610.52,-513.02 1603.73,-509.48 1596.73,-506.35"/>
<polygon fill="black" stroke="black" points="1597.62,-502.93 1587.05,-502.32 1594.93,-509.39 1597.62,-502.93"/>
</g>
<!-- module.eks.aws_iam_openid_connect_provider.main -->
<g id="node4" class="node">
<title>module.eks.aws_iam_openid_connect_provider.main</title>
<polygon fill="none" stroke="black" points="1931,-562 1653,-562 1653,-526 1931,-526 1931,-562"/>
<text text-anchor="middle" x="1792" y="-540.3" font-family="sans-serif" font-size="14.00">aws_iam_openid_connect_provider.main</text>
</g>
<!-- module.eks.aws_iam_openid_connect_provider.main&#45;&gt;module.eks.aws_eks_cluster.main -->
<g id="edge10" class="edge">
<title>module.eks.aws_iam_openid_connect_provider.main&#45;&gt;module.eks.aws_eks_cluster.main</title>
<path fill="none" stroke="black" d="M1669.1,-525.99C1663.48,-523.37 1658.08,-520.39 1653,-517 1629,-501 1641.58,-478.1 1617,-463 1576.16,-437.91 1523.28,-430.54 1478.94,-429.72"/>
<polygon fill="black" stroke="black" points="1478.77,-426.22 1468.74,-429.65 1478.72,-433.22 1478.77,-426.22"/>
</g>
<!-- module.iam.aws_iam_role.eks_node_role -->
<g id="node15" class="node">
<title>module.iam.aws_iam_role.eks_node_role</title>
<polygon fill="none" stroke="black" points="258.5,-524 57.5,-524 57.5,-488 258.5,-488 258.5,-524"/>
<text text-anchor="middle" x="158" y="-502.3" font-family="sans-serif" font-size="14.00">aws_iam_role.eks_node_role</text>
</g>
<!-- module.eks.aws_iam_role_policy_attachment.ec2_container_registry_read_only&#45;&gt;module.iam.aws_iam_role.eks_node_role -->
<g id="edge11" class="edge">
<title>module.eks.aws_iam_role_policy_attachment.ec2_container_registry_read_only&#45;&gt;module.iam.aws_iam_role.eks_node_role</title>
<path fill="none" stroke="black" d="M1162.73,-606.77C874.9,-616.21 406.5,-625.2 336,-587 310.64,-573.26 324.03,-548.95 300,-533 290.44,-526.66 279.77,-521.72 268.68,-517.89"/>
<polygon fill="black" stroke="black" points="269.44,-514.46 258.85,-514.81 267.34,-521.14 269.44,-514.46"/>
</g>
<!-- module.iam.aws_iam_role.eks_cluster_role -->
<g id="node14" class="node">
<title>module.iam.aws_iam_role.eks_cluster_role</title>
<polygon fill="none" stroke="black" points="643.5,-578 430.5,-578 430.5,-542 643.5,-542 643.5,-578"/>
<text text-anchor="middle" x="537" y="-556.3" font-family="sans-serif" font-size="14.00">aws_iam_role.eks_cluster_role</text>
</g>
<!-- module.eks.aws_iam_role_policy_attachment.eks_cluster_policy&#45;&gt;module.iam.aws_iam_role.eks_cluster_role -->
<g id="edge12" class="edge">
<title>module.eks.aws_iam_role_policy_attachment.eks_cluster_policy&#45;&gt;module.iam.aws_iam_role.eks_cluster_role</title>
<path fill="none" stroke="black" d="M869.54,-484.12C836.68,-492.94 798.73,-504.94 766,-520 756.37,-524.43 755.95,-529.34 746,-533 717.06,-543.65 684.51,-550.21 653.9,-554.22"/>
<polygon fill="black" stroke="black" points="653.11,-550.79 643.61,-555.48 653.96,-557.74 653.11,-550.79"/>
</g>
<!-- module.eks.aws_iam_role_policy_attachment.eks_cni_policy&#45;&gt;module.iam.aws_iam_role.eks_node_role -->
<g id="edge13" class="edge">
<title>module.eks.aws_iam_role_policy_attachment.eks_cni_policy&#45;&gt;module.iam.aws_iam_role.eks_node_role</title>
<path fill="none" stroke="black" d="M1226.98,-545C1204.03,-539.53 1181.86,-530.71 1163,-517 1132.12,-494.55 1158.78,-460.16 1127,-439 980.68,-341.55 491,-342.04 336,-425 310.57,-438.61 324.03,-463.05 300,-479 290.44,-485.34 279.77,-490.28 268.68,-494.11"/>
<polygon fill="black" stroke="black" points="267.34,-490.86 258.85,-497.19 269.44,-497.54 267.34,-490.86"/>
</g>
<!-- module.eks.aws_iam_role_policy_attachment.eks_service_policy&#45;&gt;module.iam.aws_iam_role.eks_cluster_role -->
<g id="edge14" class="edge">
<title>module.eks.aws_iam_role_policy_attachment.eks_service_policy&#45;&gt;module.iam.aws_iam_role.eks_cluster_role</title>
<path fill="none" stroke="black" d="M773.79,-552.55C733.26,-553.83 691.14,-555.16 653.9,-556.34"/>
<polygon fill="black" stroke="black" points="653.42,-552.85 643.53,-556.67 653.64,-559.85 653.42,-552.85"/>
</g>
<!-- module.eks.aws_iam_role_policy_attachment.eks_worker_node_policy&#45;&gt;module.iam.aws_iam_role.eks_node_role -->
<g id="edge15" class="edge">
<title>module.eks.aws_iam_role_policy_attachment.eks_worker_node_policy&#45;&gt;module.iam.aws_iam_role.eks_node_role</title>
<path fill="none" stroke="black" d="M1192.92,-479.34C1182.38,-474.9 1172.31,-469.51 1163,-463 1134.01,-442.73 1157.15,-410.52 1127,-392 827.43,-208.02 628.27,-196.63 336,-392 301.21,-415.25 332.44,-452.56 300,-479 290.64,-486.63 279.78,-492.33 268.31,-496.58"/>
<polygon fill="black" stroke="black" points="266.95,-493.34 258.56,-499.8 269.15,-499.98 266.95,-493.34"/>
</g>
<!-- module.eks.kubernetes_config_map.aws_auth -->
<g id="node10" class="node">
<title>module.eks.kubernetes_config_map.aws_auth</title>
<polygon fill="none" stroke="black" points="2213,-562 1973,-562 1973,-526 2213,-526 2213,-562"/>
<text text-anchor="middle" x="2093" y="-540.3" font-family="sans-serif" font-size="14.00">kubernetes_config_map.aws_auth</text>
</g>
<!-- module.eks.kubernetes_config_map.aws_auth&#45;&gt;module.eks.data.aws_eks_cluster_auth.main -->
<g id="edge16" class="edge">
<title>module.eks.kubernetes_config_map.aws_auth&#45;&gt;module.eks.data.aws_eks_cluster_auth.main</title>
<path fill="none" stroke="black" d="M1992.02,-525.94C1963.47,-520.79 1932.2,-515.14 1903.09,-509.88"/>
<polygon fill="black" stroke="black" points="1903.35,-506.37 1892.88,-508.04 1902.1,-513.26 1903.35,-506.37"/>
</g>
<!-- module.eks.kubernetes_config_map.aws_auth&#45;&gt;module.iam.aws_iam_role.eks_node_role -->
<g id="edge17" class="edge">
<title>module.eks.kubernetes_config_map.aws_auth&#45;&gt;module.iam.aws_iam_role.eks_node_role</title>
<path fill="none" stroke="black" d="M2065.23,-562.04C2034.39,-581.7 1981.47,-612.08 1931,-625 1698.36,-684.56 1631.15,-644 1391,-644 1391,-644 1391,-644 949.5,-644 813.01,-644 448.48,-692.31 336,-615 303.2,-592.45 331.12,-557.81 300,-533 290.64,-525.53 279.82,-519.92 268.43,-515.72"/>
<polygon fill="black" stroke="black" points="269.34,-512.34 258.74,-512.52 267.14,-518.98 269.34,-512.34"/>
</g>
<!-- module.eks.null_resource.configure_kubectl -->
<g id="node11" class="node">
<title>module.eks.null_resource.configure_kubectl</title>
<polygon fill="none" stroke="black" points="1905.5,-454 1678.5,-454 1678.5,-418 1905.5,-418 1905.5,-454"/>
<text text-anchor="middle" x="1792" y="-432.3" font-family="sans-serif" font-size="14.00">null_resource.configure_kubectl</text>
</g>
<!-- module.eks.null_resource.configure_kubectl&#45;&gt;module.eks.aws_eks_cluster.main -->
<g id="edge18" class="edge">
<title>module.eks.null_resource.configure_kubectl&#45;&gt;module.eks.aws_eks_cluster.main</title>
<path fill="none" stroke="black" d="M1678.25,-436C1615.15,-436 1537.63,-436 1479.04,-436"/>
<polygon fill="black" stroke="black" points="1478.7,-432.5 1468.7,-436 1478.7,-439.5 1478.7,-432.5"/>
</g>
<!-- module.iam.aws_iam_policy.alb_controller_policy -->
<g id="node12" class="node">
<title>module.iam.aws_iam_policy.alb_controller_policy</title>
<polygon fill="none" stroke="black" points="285,-578 31,-578 31,-542 285,-542 285,-578"/>
<text text-anchor="middle" x="158" y="-556.3" font-family="sans-serif" font-size="14.00">aws_iam_policy.alb_controller_policy</text>
</g>
<!-- module.iam.aws_iam_policy.cluster_autoscaler_policy -->
<g id="node13" class="node">
<title>module.iam.aws_iam_policy.cluster_autoscaler_policy</title>
<polygon fill="none" stroke="black" points="300,-470 16,-470 16,-434 300,-434 300,-470"/>
<text text-anchor="middle" x="158" y="-448.3" font-family="sans-serif" font-size="14.00">aws_iam_policy.cluster_autoscaler_policy</text>
</g>
<!-- module.iam.aws_iam_role_policy_attachment.alb_controller_attach -->
<g id="node16" class="node">
<title>module.iam.aws_iam_role_policy_attachment.alb_controller_attach</title>
<polygon fill="none" stroke="black" points="722.5,-524 351.5,-524 351.5,-488 722.5,-488 722.5,-524"/>
<text text-anchor="middle" x="537" y="-502.3" font-family="sans-serif" font-size="14.00">aws_iam_role_policy_attachment.alb_controller_attach</text>
</g>
<!-- module.iam.aws_iam_role_policy_attachment.alb_controller_attach&#45;&gt;module.iam.aws_iam_policy.alb_controller_policy -->
<g id="edge19" class="edge">
<title>module.iam.aws_iam_role_policy_attachment.alb_controller_attach&#45;&gt;module.iam.aws_iam_policy.alb_controller_policy</title>
<path fill="none" stroke="black" d="M400.13,-524.02C378.67,-526.96 356.72,-530.02 336,-533 319.54,-535.37 302.23,-537.92 285.14,-540.49"/>
<polygon fill="black" stroke="black" points="284.48,-537.05 275.11,-542 285.52,-543.97 284.48,-537.05"/>
</g>
<!-- module.iam.aws_iam_role_policy_attachment.alb_controller_attach&#45;&gt;module.iam.aws_iam_role.eks_node_role -->
<g id="edge20" class="edge">
<title>module.iam.aws_iam_role_policy_attachment.alb_controller_attach&#45;&gt;module.iam.aws_iam_role.eks_node_role</title>
<path fill="none" stroke="black" d="M351.37,-506C323.12,-506 294.76,-506 268.82,-506"/>
<polygon fill="black" stroke="black" points="268.62,-502.5 258.62,-506 268.62,-509.5 268.62,-502.5"/>
</g>
<!-- module.iam.aws_iam_role_policy_attachment.cluster_autoscaler_attach -->
<g id="node17" class="node">
<title>module.iam.aws_iam_role_policy_attachment.cluster_autoscaler_attach</title>
<polygon fill="none" stroke="black" points="738,-470 336,-470 336,-434 738,-434 738,-470"/>
<text text-anchor="middle" x="537" y="-448.3" font-family="sans-serif" font-size="14.00">aws_iam_role_policy_attachment.cluster_autoscaler_attach</text>
</g>
<!-- module.iam.aws_iam_role_policy_attachment.cluster_autoscaler_attach&#45;&gt;module.iam.aws_iam_policy.cluster_autoscaler_policy -->
<g id="edge21" class="edge">
<title>module.iam.aws_iam_role_policy_attachment.cluster_autoscaler_attach&#45;&gt;module.iam.aws_iam_policy.cluster_autoscaler_policy</title>
<path fill="none" stroke="black" d="M335.91,-452C327.33,-452 318.78,-452 310.33,-452"/>
<polygon fill="black" stroke="black" points="310.08,-448.5 300.08,-452 310.08,-455.5 310.08,-448.5"/>
</g>
<!-- module.iam.aws_iam_role_policy_attachment.cluster_autoscaler_attach&#45;&gt;module.iam.aws_iam_role.eks_node_role -->
<g id="edge22" class="edge">
<title>module.iam.aws_iam_role_policy_attachment.cluster_autoscaler_attach&#45;&gt;module.iam.aws_iam_role.eks_node_role</title>
<path fill="none" stroke="black" d="M400.13,-470.02C378.67,-472.96 356.72,-476.02 336,-479 314.25,-482.13 291.02,-485.58 268.79,-488.95"/>
<polygon fill="black" stroke="black" points="268.01,-485.53 258.65,-490.49 269.06,-492.45 268.01,-485.53"/>
</g>
<!-- module.observability.helm_release.aws_load_balancer_controller -->
<g id="node18" class="node">
<title>module.observability.helm_release.aws_load_balancer_controller</title>
<polygon fill="none" stroke="black" points="2608,-371 2307,-371 2307,-335 2608,-335 2608,-371"/>
<text text-anchor="middle" x="2457.5" y="-349.3" font-family="sans-serif" font-size="14.00">helm_release.aws_load_balancer_controller</text>
</g>
<!-- module.observability.helm_release.aws_load_balancer_controller&#45;&gt;module.iam.aws_iam_role.eks_node_role -->
<g id="edge23" class="edge">
<title>module.observability.helm_release.aws_load_balancer_controller&#45;&gt;module.iam.aws_iam_role.eks_node_role</title>
<path fill="none" stroke="black" d="M2448.97,-371.34C2425.58,-425.64 2348.38,-585.8 2227,-651 2056.64,-742.51 1986.38,-682 1793,-682 1793,-682 1793,-682 949.5,-682 676.49,-682 551.25,-818.95 336,-651 292.77,-617.27 340.79,-569.64 300,-533 290.78,-524.72 279.83,-518.64 268.16,-514.21"/>
<polygon fill="black" stroke="black" points="269.26,-510.89 258.67,-511.01 267.02,-517.52 269.26,-510.89"/>
</g>
<!-- module.observability.kubernetes_namespace.monitoring -->
<g id="node22" class="node">
<title>module.observability.kubernetes_namespace.monitoring</title>
<polygon fill="none" stroke="black" points="2219,-352 1967,-352 1967,-316 2219,-316 2219,-352"/>
<text text-anchor="middle" x="2093" y="-330.3" font-family="sans-serif" font-size="14.00">kubernetes_namespace.monitoring</text>
</g>
<!-- module.observability.helm_release.aws_load_balancer_controller&#45;&gt;module.observability.kubernetes_namespace.monitoring -->
<g id="edge24" class="edge">
<title>module.observability.helm_release.aws_load_balancer_controller&#45;&gt;module.observability.kubernetes_namespace.monitoring</title>
<path fill="none" stroke="black" d="M2306.96,-345.16C2281.22,-343.81 2254.6,-342.42 2229.27,-341.09"/>
<polygon fill="black" stroke="black" points="2229.42,-337.59 2219.25,-340.56 2229.05,-344.58 2229.42,-337.59"/>
</g>
<!-- module.observability.helm_release.grafana -->
<g id="node19" class="node">
<title>module.observability.helm_release.grafana</title>
<polygon fill="none" stroke="black" points="3079,-324 2921,-324 2921,-288 3079,-288 3079,-324"/>
<text text-anchor="middle" x="3000" y="-302.3" font-family="sans-serif" font-size="14.00">helm_release.grafana</text>
</g>
<!-- module.observability.helm_release.loki -->
<g id="node20" class="node">
<title>module.observability.helm_release.loki</title>
<polygon fill="none" stroke="black" points="2856,-297 2725,-297 2725,-261 2856,-261 2856,-297"/>
<text text-anchor="middle" x="2790.5" y="-275.3" font-family="sans-serif" font-size="14.00">helm_release.loki</text>
</g>
<!-- module.observability.helm_release.grafana&#45;&gt;module.observability.helm_release.loki -->
<g id="edge25" class="edge">
<title>module.observability.helm_release.grafana&#45;&gt;module.observability.helm_release.loki</title>
<path fill="none" stroke="black" d="M2920.85,-295.83C2902.99,-293.51 2884.04,-291.04 2866.33,-288.74"/>
<polygon fill="black" stroke="black" points="2866.42,-285.22 2856.05,-287.4 2865.52,-292.16 2866.42,-285.22"/>
</g>
<!-- module.observability.helm_release.prometheus -->
<g id="node21" class="node">
<title>module.observability.helm_release.prometheus</title>
<polygon fill="none" stroke="black" points="2885,-351 2696,-351 2696,-315 2885,-315 2885,-351"/>
<text text-anchor="middle" x="2790.5" y="-329.3" font-family="sans-serif" font-size="14.00">helm_release.prometheus</text>
</g>
<!-- module.observability.helm_release.grafana&#45;&gt;module.observability.helm_release.prometheus -->
<g id="edge26" class="edge">
<title>module.observability.helm_release.grafana&#45;&gt;module.observability.helm_release.prometheus</title>
<path fill="none" stroke="black" d="M2920.85,-316.17C2912.51,-317.25 2903.93,-318.37 2895.36,-319.49"/>
<polygon fill="black" stroke="black" points="2894.77,-316.03 2885.3,-320.79 2895.67,-322.97 2894.77,-316.03"/>
</g>
<!-- module.observability.kubernetes_persistent_volume_claim.observability_storage -->
<g id="node23" class="node">
<title>module.observability.kubernetes_persistent_volume_claim.observability_storage</title>
<polygon fill="none" stroke="black" points="2660,-297 2255,-297 2255,-261 2660,-261 2660,-297"/>
<text text-anchor="middle" x="2457.5" y="-275.3" font-family="sans-serif" font-size="14.00">kubernetes_persistent_volume_claim.observability_storage</text>
</g>
<!-- module.observability.helm_release.loki&#45;&gt;module.observability.kubernetes_persistent_volume_claim.observability_storage -->
<g id="edge27" class="edge">
<title>module.observability.helm_release.loki&#45;&gt;module.observability.kubernetes_persistent_volume_claim.observability_storage</title>
<path fill="none" stroke="black" d="M2724.89,-279C2708.4,-279 2689.74,-279 2670.14,-279"/>
<polygon fill="black" stroke="black" points="2670.13,-275.5 2660.13,-279 2670.13,-282.5 2670.13,-275.5"/>
</g>
<!-- module.observability.helm_release.prometheus&#45;&gt;module.observability.kubernetes_namespace.monitoring -->
<g id="edge28" class="edge">
<title>module.observability.helm_release.prometheus&#45;&gt;module.observability.kubernetes_namespace.monitoring</title>
<path fill="none" stroke="black" d="M2695.8,-327.34C2683.76,-326.78 2671.59,-326.31 2660,-326 2480.07,-321.14 2434.94,-321.53 2255,-326 2246.65,-326.21 2238.07,-326.47 2229.41,-326.79"/>
<polygon fill="black" stroke="black" points="2229.09,-323.3 2219.22,-327.17 2229.35,-330.29 2229.09,-323.3"/>
</g>
<!-- module.observability.kubernetes_namespace.monitoring&#45;&gt;module.eks.data.aws_eks_cluster_auth.main -->
<g id="edge29" class="edge">
<title>module.observability.kubernetes_namespace.monitoring&#45;&gt;module.eks.data.aws_eks_cluster_auth.main</title>
<path fill="none" stroke="black" d="M2042.32,-352.11C2015.02,-364.05 1982.11,-381.96 1959,-406 1939.44,-426.35 1953.41,-445.84 1931,-463 1926.16,-466.71 1920.95,-469.95 1915.48,-472.78"/>
<polygon fill="black" stroke="black" points="1913.66,-469.77 1906.08,-477.17 1916.62,-476.12 1913.66,-469.77"/>
</g>
<!-- module.observability.kubernetes_persistent_volume_claim.observability_storage&#45;&gt;module.observability.kubernetes_namespace.monitoring -->
<g id="edge30" class="edge">
<title>module.observability.kubernetes_persistent_volume_claim.observability_storage&#45;&gt;module.observability.kubernetes_namespace.monitoring</title>
<path fill="none" stroke="black" d="M2337.8,-297.01C2300.94,-302.6 2260.13,-308.79 2222.62,-314.48"/>
<polygon fill="black" stroke="black" points="2222.01,-311.04 2212.65,-316 2223.06,-317.96 2222.01,-311.04"/>
</g>
<!-- module.vpc.data.aws_availability_zones.available -->
<g id="node24" class="node">
<title>module.vpc.data.aws_availability_zones.available</title>
<polygon fill="none" stroke="black" points="664.5,-214 409.5,-214 409.5,-178 664.5,-178 664.5,-214"/>
<text text-anchor="middle" x="537" y="-192.3" font-family="sans-serif" font-size="14.00">data.aws_availability_zones.available</text>
</g>
<!-- module.vpc.aws_eip.nat -->
<g id="node25" class="node">
<title>module.vpc.aws_eip.nat</title>
<polygon fill="none" stroke="black" points="997.5,-52 903.5,-52 903.5,-16 997.5,-16 997.5,-52"/>
<text text-anchor="middle" x="950.5" y="-30.3" font-family="sans-serif" font-size="14.00">aws_eip.nat</text>
</g>
<!-- module.vpc.aws_internet_gateway.main -->
<g id="node26" class="node">
<title>module.vpc.aws_internet_gateway.main</title>
<polygon fill="none" stroke="black" points="1050.5,-106 850.5,-106 850.5,-70 1050.5,-70 1050.5,-106"/>
<text text-anchor="middle" x="950.5" y="-84.3" font-family="sans-serif" font-size="14.00">aws_internet_gateway.main</text>
</g>
<!-- module.vpc.aws_vpc.main -->
<g id="node34" class="node">
<title>module.vpc.aws_vpc.main</title>
<polygon fill="none" stroke="black" points="590.5,-160 483.5,-160 483.5,-124 590.5,-124 590.5,-160"/>
<text text-anchor="middle" x="537" y="-138.3" font-family="sans-serif" font-size="14.00">aws_vpc.main</text>
</g>
<!-- module.vpc.aws_internet_gateway.main&#45;&gt;module.vpc.aws_vpc.main -->
<g id="edge31" class="edge">
<title>module.vpc.aws_internet_gateway.main&#45;&gt;module.vpc.aws_vpc.main</title>
<path fill="none" stroke="black" d="M850.41,-101C772.87,-111.18 667.39,-125.02 601,-133.73"/>
<polygon fill="black" stroke="black" points="600.16,-130.31 590.7,-135.08 601.07,-137.25 600.16,-130.31"/>
</g>
<!-- module.vpc.aws_nat_gateway.main -->
<g id="node27" class="node">
<title>module.vpc.aws_nat_gateway.main</title>
<polygon fill="none" stroke="black" points="1473.5,-69 1306.5,-69 1306.5,-33 1473.5,-33 1473.5,-69"/>
<text text-anchor="middle" x="1390" y="-47.3" font-family="sans-serif" font-size="14.00">aws_nat_gateway.main</text>
</g>
<!-- module.vpc.aws_nat_gateway.main&#45;&gt;module.vpc.aws_eip.nat -->
<g id="edge32" class="edge">
<title>module.vpc.aws_nat_gateway.main&#45;&gt;module.vpc.aws_eip.nat</title>
<path fill="none" stroke="black" d="M1306.45,-47.79C1219.18,-44.4 1083.88,-39.14 1008.01,-36.2"/>
<polygon fill="black" stroke="black" points="1007.84,-32.69 997.72,-35.8 1007.57,-39.68 1007.84,-32.69"/>
</g>
<!-- module.vpc.aws_nat_gateway.main&#45;&gt;module.vpc.aws_subnet.public -->
<g id="edge33" class="edge">
<title>module.vpc.aws_nat_gateway.main&#45;&gt;module.vpc.aws_subnet.public</title>
<path fill="none" stroke="black" d="M1306.28,-47.8C1261.76,-49.22 1207.1,-56.2 1163,-78 1142.43,-88.17 1147.39,-104.49 1127,-115 1097.33,-130.29 1061.36,-137.48 1029.73,-140.68"/>
<polygon fill="black" stroke="black" points="1029.27,-137.21 1019.62,-141.58 1029.9,-144.18 1029.27,-137.21"/>
</g>
<!-- module.vpc.aws_route_table.private -->
<g id="node28" class="node">
<title>module.vpc.aws_route_table.private</title>
<polygon fill="none" stroke="black" points="1878.5,-82 1705.5,-82 1705.5,-46 1878.5,-46 1878.5,-82"/>
<text text-anchor="middle" x="1792" y="-60.3" font-family="sans-serif" font-size="14.00">aws_route_table.private</text>
</g>
<!-- module.vpc.aws_route_table.private&#45;&gt;module.vpc.aws_nat_gateway.main -->
<g id="edge34" class="edge">
<title>module.vpc.aws_route_table.private&#45;&gt;module.vpc.aws_nat_gateway.main</title>
<path fill="none" stroke="black" d="M1705.19,-61.21C1640.01,-59.09 1550.5,-56.18 1483.69,-54.01"/>
<polygon fill="black" stroke="black" points="1483.7,-50.51 1473.59,-53.68 1483.47,-57.51 1483.7,-50.51"/>
</g>
<!-- module.vpc.aws_route_table.public -->
<g id="node29" class="node">
<title>module.vpc.aws_route_table.public</title>
<polygon fill="none" stroke="black" points="1473.5,-123 1306.5,-123 1306.5,-87 1473.5,-87 1473.5,-123"/>
<text text-anchor="middle" x="1390" y="-101.3" font-family="sans-serif" font-size="14.00">aws_route_table.public</text>
</g>
<!-- module.vpc.aws_route_table.public&#45;&gt;module.vpc.aws_internet_gateway.main -->
<g id="edge35" class="edge">
<title>module.vpc.aws_route_table.public&#45;&gt;module.vpc.aws_internet_gateway.main</title>
<path fill="none" stroke="black" d="M1306.45,-101.79C1236.9,-99.09 1136.83,-95.2 1060.66,-92.24"/>
<polygon fill="black" stroke="black" points="1060.68,-88.74 1050.55,-91.85 1060.41,-95.73 1060.68,-88.74"/>
</g>
<!-- module.vpc.aws_route_table_association.private -->
<g id="node30" class="node">
<title>module.vpc.aws_route_table_association.private</title>
<polygon fill="none" stroke="black" points="2219,-146 1967,-146 1967,-110 2219,-110 2219,-146"/>
<text text-anchor="middle" x="2093" y="-124.3" font-family="sans-serif" font-size="14.00">aws_route_table_association.private</text>
</g>
<!-- module.vpc.aws_route_table_association.private&#45;&gt;module.vpc.aws_route_table.private -->
<g id="edge36" class="edge">
<title>module.vpc.aws_route_table_association.private&#45;&gt;module.vpc.aws_route_table.private</title>
<path fill="none" stroke="black" d="M2007.52,-109.92C1970.11,-101.91 1925.95,-92.46 1887.45,-84.22"/>
<polygon fill="black" stroke="black" points="1887.78,-80.71 1877.27,-82.04 1886.32,-87.55 1887.78,-80.71"/>
</g>
<!-- module.vpc.aws_route_table_association.private&#45;&gt;module.vpc.aws_subnet.private -->
<g id="edge37" class="edge">
<title>module.vpc.aws_route_table_association.private&#45;&gt;module.vpc.aws_subnet.private</title>
<path fill="none" stroke="black" d="M1996.49,-146.03C1975.02,-149.52 1952.28,-152.78 1931,-155 1599.01,-189.65 1200.83,-195.27 1032.71,-196.01"/>
<polygon fill="black" stroke="black" points="1032.69,-192.51 1022.7,-196.05 1032.71,-199.51 1032.69,-192.51"/>
</g>
<!-- module.vpc.aws_route_table_association.public -->
<g id="node31" class="node">
<title>module.vpc.aws_route_table_association.public</title>
<polygon fill="none" stroke="black" points="1915,-146 1669,-146 1669,-110 1915,-110 1915,-146"/>
<text text-anchor="middle" x="1792" y="-124.3" font-family="sans-serif" font-size="14.00">aws_route_table_association.public</text>
</g>
<!-- module.vpc.aws_route_table_association.public&#45;&gt;module.vpc.aws_route_table.public -->
<g id="edge38" class="edge">
<title>module.vpc.aws_route_table_association.public&#45;&gt;module.vpc.aws_route_table.public</title>
<path fill="none" stroke="black" d="M1668.81,-120.97C1609.23,-117.55 1538.72,-113.49 1483.65,-110.33"/>
<polygon fill="black" stroke="black" points="1483.73,-106.83 1473.55,-109.75 1483.33,-113.82 1483.73,-106.83"/>
</g>
<!-- module.vpc.aws_route_table_association.public&#45;&gt;module.vpc.aws_subnet.public -->
<g id="edge39" class="edge">
<title>module.vpc.aws_route_table_association.public&#45;&gt;module.vpc.aws_subnet.public</title>
<path fill="none" stroke="black" d="M1668.84,-130.93C1651.44,-131.31 1633.77,-131.68 1617,-132 1404.62,-136.04 1154.09,-139.43 1029.71,-141.03"/>
<polygon fill="black" stroke="black" points="1029.48,-137.53 1019.52,-141.16 1029.57,-144.53 1029.48,-137.53"/>
</g>
<!-- module.vpc.aws_subnet.private&#45;&gt;module.vpc.data.aws_availability_zones.available -->
<g id="edge40" class="edge">
<title>module.vpc.aws_subnet.private&#45;&gt;module.vpc.data.aws_availability_zones.available</title>
<path fill="none" stroke="black" d="M878.29,-196C822.5,-196 743.2,-196 675.19,-196"/>
<polygon fill="black" stroke="black" points="674.8,-192.5 664.8,-196 674.8,-199.5 674.8,-192.5"/>
</g>
<!-- module.vpc.aws_subnet.private&#45;&gt;module.vpc.aws_vpc.main -->
<g id="edge41" class="edge">
<title>module.vpc.aws_subnet.private&#45;&gt;module.vpc.aws_vpc.main</title>
<path fill="none" stroke="black" d="M878.4,-186.52C839.33,-181.32 789.99,-174.77 746,-169 697.14,-162.59 641.8,-155.41 600.5,-150.07"/>
<polygon fill="black" stroke="black" points="600.94,-146.59 590.58,-148.78 600.05,-153.54 600.94,-146.59"/>
</g>
<!-- module.vpc.aws_subnet.public&#45;&gt;module.vpc.data.aws_availability_zones.available -->
<g id="edge42" class="edge">
<title>module.vpc.aws_subnet.public&#45;&gt;module.vpc.data.aws_availability_zones.available</title>
<path fill="none" stroke="black" d="M881.21,-151.11C841.71,-156.37 791.05,-163.09 746,-169 722.94,-172.03 698.44,-175.22 674.65,-178.32"/>
<polygon fill="black" stroke="black" points="673.97,-174.88 664.5,-179.64 674.87,-181.82 673.97,-174.88"/>
</g>
<!-- module.vpc.aws_subnet.public&#45;&gt;module.vpc.aws_vpc.main -->
<g id="edge43" class="edge">
<title>module.vpc.aws_subnet.public&#45;&gt;module.vpc.aws_vpc.main</title>
<path fill="none" stroke="black" d="M881.09,-142C803.05,-142 676.52,-142 600.87,-142"/>
<polygon fill="black" stroke="black" points="600.55,-138.5 590.55,-142 600.55,-145.5 600.55,-138.5"/>
</g>
</g>
</svg>
