<?xml version="1.0" encoding="UTF-8" standalone="no"?>
<!DOCTYPE svg PUBLIC "-//W3C//DTD SVG 1.1//EN"
 "http://www.w3.org/Graphics/SVG/1.1/DTD/svg11.dtd">
<!-- Generated by graphviz version 2.43.0 (0)
 -->
<!-- Title: G Pages: 1 -->
<svg width="3513pt" height="613pt"
 viewBox="0.00 0.00 3513.00 612.77" xmlns="http://www.w3.org/2000/svg" xmlns:xlink="http://www.w3.org/1999/xlink">
<g id="graph0" class="graph" transform="scale(1 1) rotate(0) translate(4 608.77)">
<title>G</title>
<polygon fill="white" stroke="transparent" points="-4,4 -4,-608.77 3509,-608.77 3509,4 -4,4"/>
<g id="clust1" class="cluster">
<title>cluster_module.eks</title>
<polygon fill="none" stroke="black" points="766,-311 766,-548 2221,-548 2221,-311 766,-311"/>
<text text-anchor="middle" x="1493.5" y="-532.8" font-family="sans-serif" font-size="14.00">module.eks</text>
</g>
<g id="clust2" class="cluster">
<title>cluster_module.iam</title>
<polygon fill="none" stroke="black" points="8,-324 8,-507 746,-507 746,-324 8,-324"/>
<text text-anchor="middle" x="377" y="-491.8" font-family="sans-serif" font-size="14.00">module.iam</text>
</g>
<g id="clust3" class="cluster">
<title>cluster_module.observability</title>
<polygon fill="none" stroke="black" points="2247,-373 2247,-556 3497,-556 3497,-373 2247,-373"/>
<text text-anchor="middle" x="2872" y="-540.8" font-family="sans-serif" font-size="14.00">module.observability</text>
</g>
<g id="clust4" class="cluster">
<title>cluster_module.vpc</title>
<polygon fill="none" stroke="black" points="401.5,-8 401.5,-245 2227,-245 2227,-8 401.5,-8"/>
<text text-anchor="middle" x="1314.25" y="-229.8" font-family="sans-serif" font-size="14.00">module.vpc</text>
</g>
<!-- module.eks.data.aws_eks_cluster_auth.main -->
<g id="node1" class="node">
<title>module.eks.data.aws_eks_cluster_auth.main</title>
<polygon fill="none" stroke="black" points="1906,-463 1678,-463 1678,-427 1906,-427 1906,-463"/>
<text text-anchor="middle" x="1792" y="-441.3" font-family="sans-serif" font-size="14.00">data.aws_eks_cluster_auth.main</text>
</g>
<!-- module.eks.aws_eks_cluster.main -->
<g id="node2" class="node">
<title>module.eks.aws_eks_cluster.main</title>
<polygon fill="none" stroke="black" points="1468.5,-355 1311.5,-355 1311.5,-319 1468.5,-319 1468.5,-355"/>
<text text-anchor="middle" x="1390" y="-333.3" font-family="sans-serif" font-size="14.00">aws_eks_cluster.main</text>
</g>
<!-- module.eks.data.aws_eks_cluster_auth.main&#45;&gt;module.eks.aws_eks_cluster.main -->
<g id="edge1" class="edge">
<title>module.eks.data.aws_eks_cluster_auth.main&#45;&gt;module.eks.aws_eks_cluster.main</title>
<path fill="none" stroke="black" d="M1677.66,-430.67C1668.96,-427.25 1660.62,-423.08 1653,-418 1629,-402 1641.58,-379.1 1617,-364 1576.16,-338.91 1523.28,-331.54 1478.94,-330.72"/>
<polygon fill="black" stroke="black" points="1478.77,-327.22 1468.74,-330.65 1478.72,-334.22 1478.77,-327.22"/>
</g>
<!-- module.eks.aws_iam_role_policy_attachment.eks_cluster_policy -->
<g id="node6" class="node">
<title>module.eks.aws_iam_role_policy_attachment.eks_cluster_policy</title>
<polygon fill="none" stroke="black" points="1127,-382 774,-382 774,-346 1127,-346 1127,-382"/>
<text text-anchor="middle" x="950.5" y="-360.3" font-family="sans-serif" font-size="14.00">aws_iam_role_policy_attachment.eks_cluster_policy</text>
</g>
<!-- module.eks.aws_eks_cluster.main&#45;&gt;module.eks.aws_iam_role_policy_attachment.eks_cluster_policy -->
<g id="edge2" class="edge">
<title>module.eks.aws_eks_cluster.main&#45;&gt;module.eks.aws_iam_role_policy_attachment.eks_cluster_policy</title>
<path fill="none" stroke="black" d="M1311.29,-341.8C1262.91,-344.78 1198.48,-348.76 1137.52,-352.52"/>
<polygon fill="black" stroke="black" points="1137.15,-349.04 1127.38,-353.15 1137.58,-356.02 1137.15,-349.04"/>
</g>
<!-- module.eks.aws_iam_role_policy_attachment.eks_service_policy -->
<g id="node8" class="node">
<title>module.eks.aws_iam_role_policy_attachment.eks_service_policy</title>
<polygon fill="none" stroke="black" points="1127,-463 774,-463 774,-427 1127,-427 1127,-463"/>
<text text-anchor="middle" x="950.5" y="-441.3" font-family="sans-serif" font-size="14.00">aws_iam_role_policy_attachment.eks_service_policy</text>
</g>
<!-- module.eks.aws_eks_cluster.main&#45;&gt;module.eks.aws_iam_role_policy_attachment.eks_service_policy -->
<g id="edge3" class="edge">
<title>module.eks.aws_eks_cluster.main&#45;&gt;module.eks.aws_iam_role_policy_attachment.eks_service_policy</title>
<path fill="none" stroke="black" d="M1311.47,-336.37C1266.67,-338.41 1210.04,-345.15 1163,-364 1144.44,-371.44 1144.82,-381.92 1127,-391 1100.06,-404.72 1069,-415.68 1040.57,-424.05"/>
<polygon fill="black" stroke="black" points="1039.28,-420.78 1030.64,-426.9 1041.21,-427.51 1039.28,-420.78"/>
</g>
<!-- module.vpc.aws_subnet.private -->
<g id="node35" class="node">
<title>module.vpc.aws_subnet.private</title>
<polygon fill="none" stroke="black" points="1022.5,-214 878.5,-214 878.5,-178 1022.5,-178 1022.5,-214"/>
<text text-anchor="middle" x="950.5" y="-192.3" font-family="sans-serif" font-size="14.00">aws_subnet.private</text>
</g>
<!-- module.eks.aws_eks_cluster.main&#45;&gt;module.vpc.aws_subnet.private -->
<g id="edge4" class="edge">
<title>module.eks.aws_eks_cluster.main&#45;&gt;module.vpc.aws_subnet.private</title>
<path fill="none" stroke="black" d="M1333.57,-318.93C1280.56,-301.67 1198.36,-274.96 1127,-252 1091.13,-240.46 1051.11,-227.68 1018.35,-217.25"/>
<polygon fill="black" stroke="black" points="1019.02,-213.79 1008.43,-214.09 1016.9,-220.46 1019.02,-213.79"/>
</g>
<!-- module.vpc.aws_subnet.public -->
<g id="node36" class="node">
<title>module.vpc.aws_subnet.public</title>
<polygon fill="none" stroke="black" points="1019.5,-160 881.5,-160 881.5,-124 1019.5,-124 1019.5,-160"/>
<text text-anchor="middle" x="950.5" y="-138.3" font-family="sans-serif" font-size="14.00">aws_subnet.public</text>
</g>
<!-- module.eks.aws_eks_cluster.main&#45;&gt;module.vpc.aws_subnet.public -->
<g id="edge5" class="edge">
<title>module.eks.aws_eks_cluster.main&#45;&gt;module.vpc.aws_subnet.public</title>
<path fill="none" stroke="black" d="M1311.28,-322.43C1263.47,-309.98 1203.76,-287.71 1163,-249 1134.73,-222.15 1158.03,-192.61 1127,-169 1099.54,-148.11 1062.55,-140.33 1029.6,-138.18"/>
<polygon fill="black" stroke="black" points="1029.68,-134.68 1019.52,-137.69 1029.34,-141.67 1029.68,-134.68"/>
</g>
<!-- module.eks.aws_eks_node_group.main -->
<g id="node3" class="node">
<title>module.eks.aws_eks_node_group.main</title>
<polygon fill="none" stroke="black" points="1888,-517 1696,-517 1696,-481 1888,-481 1888,-517"/>
<text text-anchor="middle" x="1792" y="-495.3" font-family="sans-serif" font-size="14.00">aws_eks_node_group.main</text>
</g>
<!-- module.eks.aws_eks_node_group.main&#45;&gt;module.eks.aws_eks_cluster.main -->
<g id="edge6" class="edge">
<title>module.eks.aws_eks_node_group.main&#45;&gt;module.eks.aws_eks_cluster.main</title>
<path fill="none" stroke="black" d="M1695.79,-494.04C1680.14,-489.59 1665.1,-482.64 1653,-472 1615,-438.59 1656.22,-395.97 1617,-364 1578.99,-333.01 1524.71,-325.72 1478.88,-326.44"/>
<polygon fill="black" stroke="black" points="1478.53,-322.95 1468.63,-326.73 1478.73,-329.95 1478.53,-322.95"/>
</g>
<!-- module.eks.aws_iam_role_policy_attachment.ec2_container_registry_read_only -->
<g id="node5" class="node">
<title>module.eks.aws_iam_role_policy_attachment.ec2_container_registry_read_only</title>
<polygon fill="none" stroke="black" points="1617,-463 1163,-463 1163,-427 1617,-427 1617,-463"/>
<text text-anchor="middle" x="1390" y="-441.3" font-family="sans-serif" font-size="14.00">aws_iam_role_policy_attachment.ec2_container_registry_read_only</text>
</g>
<!-- module.eks.aws_eks_node_group.main&#45;&gt;module.eks.aws_iam_role_policy_attachment.ec2_container_registry_read_only -->
<g id="edge7" class="edge">
<title>module.eks.aws_eks_node_group.main&#45;&gt;module.eks.aws_iam_role_policy_attachment.ec2_container_registry_read_only</title>
<path fill="none" stroke="black" d="M1695.81,-483.61C1670.25,-479.65 1642.59,-475.51 1617,-472 1597.91,-469.38 1577.89,-466.78 1558,-464.28"/>
<polygon fill="black" stroke="black" points="1558.28,-460.79 1547.93,-463.03 1557.42,-467.74 1558.28,-460.79"/>
</g>
<!-- module.eks.aws_iam_role_policy_attachment.eks_cni_policy -->
<g id="node7" class="node">
<title>module.eks.aws_iam_role_policy_attachment.eks_cni_policy</title>
<polygon fill="none" stroke="black" points="1553,-409 1227,-409 1227,-373 1553,-373 1553,-409"/>
<text text-anchor="middle" x="1390" y="-387.3" font-family="sans-serif" font-size="14.00">aws_iam_role_policy_attachment.eks_cni_policy</text>
</g>
<!-- module.eks.aws_eks_node_group.main&#45;&gt;module.eks.aws_iam_role_policy_attachment.eks_cni_policy -->
<g id="edge8" class="edge">
<title>module.eks.aws_eks_node_group.main&#45;&gt;module.eks.aws_iam_role_policy_attachment.eks_cni_policy</title>
<path fill="none" stroke="black" d="M1695.78,-490.65C1680.65,-486.5 1665.8,-480.53 1653,-472 1629,-456 1641.58,-433.1 1617,-418 1600.59,-407.92 1582.23,-400.69 1563.26,-395.61"/>
<polygon fill="black" stroke="black" points="1563.84,-392.15 1553.29,-393.14 1562.16,-398.94 1563.84,-392.15"/>
</g>
<!-- module.eks.aws_iam_role_policy_attachment.eks_worker_node_policy -->
<g id="node9" class="node">
<title>module.eks.aws_iam_role_policy_attachment.eks_worker_node_policy</title>
<polygon fill="none" stroke="black" points="1587,-517 1193,-517 1193,-481 1587,-481 1587,-517"/>
<text text-anchor="middle" x="1390" y="-495.3" font-family="sans-serif" font-size="14.00">aws_iam_role_policy_attachment.eks_worker_node_policy</text>
</g>
<!-- module.eks.aws_eks_node_group.main&#45;&gt;module.eks.aws_iam_role_policy_attachment.eks_worker_node_policy -->
<g id="edge9" class="edge">
<title>module.eks.aws_eks_node_group.main&#45;&gt;module.eks.aws_iam_role_policy_attachment.eks_worker_node_policy</title>
<path fill="none" stroke="black" d="M1695.95,-499C1666.09,-499 1631.87,-499 1597.4,-499"/>
<polygon fill="black" stroke="black" points="1597.19,-495.5 1587.19,-499 1597.19,-502.5 1597.19,-495.5"/>
</g>
<!-- module.eks.aws_iam_openid_connect_provider.main -->
<g id="node4" class="node">
<title>module.eks.aws_iam_openid_connect_provider.main</title>
<polygon fill="none" stroke="black" points="1931,-355 1653,-355 1653,-319 1931,-319 1931,-355"/>
<text text-anchor="middle" x="1792" y="-333.3" font-family="sans-serif" font-size="14.00">aws_iam_openid_connect_provider.main</text>
</g>
<!-- module.eks.aws_iam_openid_connect_provider.main&#45;&gt;module.eks.aws_eks_cluster.main -->
<g id="edge10" class="edge">
<title>module.eks.aws_iam_openid_connect_provider.main&#45;&gt;module.eks.aws_eks_cluster.main</title>
<path fill="none" stroke="black" d="M1652.78,-337C1595.11,-337 1529.83,-337 1478.89,-337"/>
<polygon fill="black" stroke="black" points="1478.57,-333.5 1468.57,-337 1478.57,-340.5 1478.57,-333.5"/>
</g>
<!-- module.iam.aws_iam_role.eks_node_role -->
<g id="node15" class="node">
<title>module.iam.aws_iam_role.eks_node_role</title>
<polygon fill="none" stroke="black" points="258.5,-422 57.5,-422 57.5,-386 258.5,-386 258.5,-422"/>
<text text-anchor="middle" x="158" y="-400.3" font-family="sans-serif" font-size="14.00">aws_iam_role.eks_node_role</text>
</g>
<!-- module.eks.aws_iam_role_policy_attachment.ec2_container_registry_read_only&#45;&gt;module.iam.aws_iam_role.eks_node_role -->
<g id="edge11" class="edge">
<title>module.eks.aws_iam_role_policy_attachment.ec2_container_registry_read_only&#45;&gt;module.iam.aws_iam_role.eks_node_role</title>
<path fill="none" stroke="black" d="M1176.63,-426.89C1171.93,-424.18 1167.37,-421.23 1163,-418 1131.3,-394.61 1159.63,-359.07 1127,-337 1054.19,-287.76 413.5,-281.52 336,-323 310.57,-336.61 324.03,-361.05 300,-377 290.44,-383.34 279.77,-388.28 268.68,-392.11"/>
<polygon fill="black" stroke="black" points="267.34,-388.86 258.85,-395.19 269.44,-395.54 267.34,-388.86"/>
</g>
<!-- module.iam.aws_iam_role.eks_cluster_role -->
<g id="node14" class="node">
<title>module.iam.aws_iam_role.eks_cluster_role</title>
<polygon fill="none" stroke="black" points="643.5,-476 430.5,-476 430.5,-440 643.5,-440 643.5,-476"/>
<text text-anchor="middle" x="537" y="-454.3" font-family="sans-serif" font-size="14.00">aws_iam_role.eks_cluster_role</text>
</g>
<!-- module.eks.aws_iam_role_policy_attachment.eks_cluster_policy&#45;&gt;module.iam.aws_iam_role.eks_cluster_role -->
<g id="edge12" class="edge">
<title>module.eks.aws_iam_role_policy_attachment.eks_cluster_policy&#45;&gt;module.iam.aws_iam_role.eks_cluster_role</title>
<path fill="none" stroke="black" d="M869.54,-382.12C836.68,-390.94 798.73,-402.94 766,-418 756.37,-422.43 755.95,-427.34 746,-431 717.06,-441.65 684.51,-448.21 653.9,-452.22"/>
<polygon fill="black" stroke="black" points="653.11,-448.79 643.61,-453.48 653.96,-455.74 653.11,-448.79"/>
</g>
<!-- module.eks.aws_iam_role_policy_attachment.eks_cni_policy&#45;&gt;module.iam.aws_iam_role.eks_node_role -->
<g id="edge13" class="edge">
<title>module.eks.aws_iam_role_policy_attachment.eks_cni_policy&#45;&gt;module.iam.aws_iam_role.eks_node_role</title>
<path fill="none" stroke="black" d="M1226.93,-391.59C1204.05,-386.16 1181.92,-377.46 1163,-364 1133.2,-342.79 1158.01,-309.4 1127,-290 1052.49,-243.39 409.07,-241.16 336,-290 301.21,-313.25 332.44,-350.56 300,-377 290.64,-384.63 279.78,-390.33 268.31,-394.58"/>
<polygon fill="black" stroke="black" points="266.95,-391.34 258.56,-397.8 269.15,-397.98 266.95,-391.34"/>
</g>
<!-- module.eks.aws_iam_role_policy_attachment.eks_service_policy&#45;&gt;module.iam.aws_iam_role.eks_cluster_role -->
<g id="edge14" class="edge">
<title>module.eks.aws_iam_role_policy_attachment.eks_service_policy&#45;&gt;module.iam.aws_iam_role.eks_cluster_role</title>
<path fill="none" stroke="black" d="M773.79,-450.55C733.26,-451.83 691.14,-453.16 653.9,-454.34"/>
<polygon fill="black" stroke="black" points="653.42,-450.85 643.53,-454.67 653.64,-457.85 653.42,-450.85"/>
</g>
<!-- module.eks.aws_iam_role_policy_attachment.eks_worker_node_policy&#45;&gt;module.iam.aws_iam_role.eks_node_role -->
<g id="edge15" class="edge">
<title>module.eks.aws_iam_role_policy_attachment.eks_worker_node_policy&#45;&gt;module.iam.aws_iam_role.eks_node_role</title>
<path fill="none" stroke="black" d="M1192.77,-506.17C908.75,-515.08 408.96,-524.67 336,-485 310.66,-471.22 324.03,-446.95 300,-431 290.44,-424.66 279.77,-419.72 268.68,-415.89"/>
<polygon fill="black" stroke="black" points="269.44,-412.46 258.85,-412.81 267.34,-419.14 269.44,-412.46"/>
</g>
<!-- module.eks.kubernetes_config_map.aws_auth -->
<g id="node10" class="node">
<title>module.eks.kubernetes_config_map.aws_auth</title>
<polygon fill="none" stroke="black" points="2213,-517 1973,-517 1973,-481 2213,-481 2213,-517"/>
<text text-anchor="middle" x="2093" y="-495.3" font-family="sans-serif" font-size="14.00">kubernetes_config_map.aws_auth</text>
</g>
<!-- module.eks.kubernetes_config_map.aws_auth&#45;&gt;module.eks.data.aws_eks_cluster_auth.main -->
<g id="edge16" class="edge">
<title>module.eks.kubernetes_config_map.aws_auth&#45;&gt;module.eks.data.aws_eks_cluster_auth.main</title>
<path fill="none" stroke="black" d="M1992.02,-480.94C1963.47,-475.79 1932.2,-470.14 1903.09,-464.88"/>
<polygon fill="black" stroke="black" points="1903.35,-461.37 1892.88,-463.04 1902.1,-468.26 1903.35,-461.37"/>
</g>
<!-- module.eks.kubernetes_config_map.aws_auth&#45;&gt;module.iam.aws_iam_role.eks_node_role -->
<g id="edge17" class="edge">
<title>module.eks.kubernetes_config_map.aws_auth&#45;&gt;module.iam.aws_iam_role.eks_node_role</title>
<path fill="none" stroke="black" d="M1996.93,-517.06C1975.33,-520.58 1952.43,-523.84 1931,-526 1692.07,-550.13 1631.15,-545 1391,-545 1391,-545 1391,-545 949.5,-545 676.46,-545 560.63,-668.21 336,-513 303.25,-490.37 331.12,-455.81 300,-431 290.64,-423.53 279.82,-417.92 268.43,-413.72"/>
<polygon fill="black" stroke="black" points="269.34,-410.34 258.74,-410.52 267.14,-416.98 269.34,-410.34"/>
</g>
<!-- module.eks.null_resource.configure_kubectl -->
<g id="node11" class="node">
<title>module.eks.null_resource.configure_kubectl</title>
<polygon fill="none" stroke="black" points="1905.5,-409 1678.5,-409 1678.5,-373 1905.5,-373 1905.5,-409"/>
<text text-anchor="middle" x="1792" y="-387.3" font-family="sans-serif" font-size="14.00">null_resource.configure_kubectl</text>
</g>
<!-- module.eks.null_resource.configure_kubectl&#45;&gt;module.eks.aws_eks_cluster.main -->
<g id="edge18" class="edge">
<title>module.eks.null_resource.configure_kubectl&#45;&gt;module.eks.aws_eks_cluster.main</title>
<path fill="none" stroke="black" d="M1678.76,-372.99C1658.24,-369.87 1636.99,-366.74 1617,-364 1571.52,-357.76 1520.78,-351.62 1478.91,-346.78"/>
<polygon fill="black" stroke="black" points="1479.08,-343.27 1468.75,-345.61 1478.28,-350.23 1479.08,-343.27"/>
</g>
<!-- module.iam.aws_iam_policy.alb_controller_policy -->
<g id="node12" class="node">
<title>module.iam.aws_iam_policy.alb_controller_policy</title>
<polygon fill="none" stroke="black" points="285,-476 31,-476 31,-440 285,-440 285,-476"/>
<text text-anchor="middle" x="158" y="-454.3" font-family="sans-serif" font-size="14.00">aws_iam_policy.alb_controller_policy</text>
</g>
<!-- module.iam.aws_iam_policy.cluster_autoscaler_policy -->
<g id="node13" class="node">
<title>module.iam.aws_iam_policy.cluster_autoscaler_policy</title>
<polygon fill="none" stroke="black" points="300,-368 16,-368 16,-332 300,-332 300,-368"/>
<text text-anchor="middle" x="158" y="-346.3" font-family="sans-serif" font-size="14.00">aws_iam_policy.cluster_autoscaler_policy</text>
</g>
<!-- module.iam.aws_iam_role_policy_attachment.alb_controller_attach -->
<g id="node16" class="node">
<title>module.iam.aws_iam_role_policy_attachment.alb_controller_attach</title>
<polygon fill="none" stroke="black" points="722.5,-422 351.5,-422 351.5,-386 722.5,-386 722.5,-422"/>
<text text-anchor="middle" x="537" y="-400.3" font-family="sans-serif" font-size="14.00">aws_iam_role_policy_attachment.alb_controller_attach</text>
</g>
<!-- module.iam.aws_iam_role_policy_attachment.alb_controller_attach&#45;&gt;module.iam.aws_iam_policy.alb_controller_policy -->
<g id="edge19" class="edge">
<title>module.iam.aws_iam_role_policy_attachment.alb_controller_attach&#45;&gt;module.iam.aws_iam_policy.alb_controller_policy</title>
<path fill="none" stroke="black" d="M400.13,-422.02C378.67,-424.96 356.72,-428.02 336,-431 319.54,-433.37 302.23,-435.92 285.14,-438.49"/>
<polygon fill="black" stroke="black" points="284.48,-435.05 275.11,-440 285.52,-441.97 284.48,-435.05"/>
</g>
<!-- module.iam.aws_iam_role_policy_attachment.alb_controller_attach&#45;&gt;module.iam.aws_iam_role.eks_node_role -->
<g id="edge20" class="edge">
<title>module.iam.aws_iam_role_policy_attachment.alb_controller_attach&#45;&gt;module.iam.aws_iam_role.eks_node_role</title>
<path fill="none" stroke="black" d="M351.37,-404C323.12,-404 294.76,-404 268.82,-404"/>
<polygon fill="black" stroke="black" points="268.62,-400.5 258.62,-404 268.62,-407.5 268.62,-400.5"/>
</g>
<!-- module.iam.aws_iam_role_policy_attachment.cluster_autoscaler_attach -->
<g id="node17" class="node">
<title>module.iam.aws_iam_role_policy_attachment.cluster_autoscaler_attach</title>
<polygon fill="none" stroke="black" points="738,-368 336,-368 336,-332 738,-332 738,-368"/>
<text text-anchor="middle" x="537" y="-346.3" font-family="sans-serif" font-size="14.00">aws_iam_role_policy_attachment.cluster_autoscaler_attach</text>
</g>
<!-- module.iam.aws_iam_role_policy_attachment.cluster_autoscaler_attach&#45;&gt;module.iam.aws_iam_policy.cluster_autoscaler_policy -->
<g id="edge21" class="edge">
<title>module.iam.aws_iam_role_policy_attachment.cluster_autoscaler_attach&#45;&gt;module.iam.aws_iam_policy.cluster_autoscaler_policy</title>
<path fill="none" stroke="black" d="M335.91,-350C327.33,-350 318.78,-350 310.33,-350"/>
<polygon fill="black" stroke="black" points="310.08,-346.5 300.08,-350 310.08,-353.5 310.08,-346.5"/>
</g>
<!-- module.iam.aws_iam_role_policy_attachment.cluster_autoscaler_attach&#45;&gt;module.iam.aws_iam_role.eks_node_role -->
<g id="edge22" class="edge">
<title>module.iam.aws_iam_role_policy_attachment.cluster_autoscaler_attach&#45;&gt;module.iam.aws_iam_role.eks_node_role</title>
<path fill="none" stroke="black" d="M400.13,-368.02C378.67,-370.96 356.72,-374.02 336,-377 314.25,-380.13 291.02,-383.58 268.79,-386.95"/>
<polygon fill="black" stroke="black" points="268.01,-383.53 258.65,-388.49 269.06,-390.45 268.01,-383.53"/>
</g>
<!-- module.observability.aws_iam_policy.adot_cloudwatch_logs -->
<g id="node18" class="node">
<title>module.observability.aws_iam_policy.adot_cloudwatch_logs</title>
<polygon fill="none" stroke="black" points="3075,-417 2812,-417 2812,-381 3075,-381 3075,-417"/>
<text text-anchor="middle" x="2943.5" y="-395.3" font-family="sans-serif" font-size="14.00">aws_iam_policy.adot_cloudwatch_logs</text>
</g>
<!-- module.observability.aws_iam_policy.adot_cloudwatch_logs&#45;&gt;module.eks.aws_eks_node_group.main -->
<g id="edge23" class="edge">
<title>module.observability.aws_iam_policy.adot_cloudwatch_logs&#45;&gt;module.eks.aws_eks_node_group.main</title>
<path fill="none" stroke="black" d="M2811.66,-398.26C2583.11,-398.27 2120.84,-404.44 1967,-452 1949.51,-457.41 1948.19,-465.72 1931,-472 1920.54,-475.82 1909.42,-479.14 1898.21,-482.01"/>
<polygon fill="black" stroke="black" points="1897.24,-478.64 1888.35,-484.42 1898.9,-485.44 1897.24,-478.64"/>
</g>
<!-- module.observability.aws_iam_policy.adot_cloudwatch_logs&#45;&gt;module.eks.aws_iam_openid_connect_provider.main -->
<g id="edge24" class="edge">
<title>module.observability.aws_iam_policy.adot_cloudwatch_logs&#45;&gt;module.eks.aws_iam_openid_connect_provider.main</title>
<path fill="none" stroke="black" d="M2811.65,-387.61C2799.6,-386.68 2787.58,-385.79 2776,-385 2480.21,-364.76 2133.78,-349.9 1941.25,-342.43"/>
<polygon fill="black" stroke="black" points="1941.2,-338.93 1931.07,-342.04 1940.93,-345.92 1941.2,-338.93"/>
</g>
<!-- module.observability.aws_iam_policy.adot_cloudwatch_logs&#45;&gt;module.eks.kubernetes_config_map.aws_auth -->
<g id="edge25" class="edge">
<title>module.observability.aws_iam_policy.adot_cloudwatch_logs&#45;&gt;module.eks.kubernetes_config_map.aws_auth</title>
<path fill="none" stroke="black" d="M2823.97,-417.14C2819.73,-419.76 2815.72,-422.7 2812,-426 2774.18,-459.61 2817.05,-504.42 2776,-534 2580.75,-674.73 2266.31,-570.26 2144.48,-520.97"/>
<polygon fill="black" stroke="black" points="2145.59,-517.65 2135.01,-517.1 2142.94,-524.12 2145.59,-517.65"/>
</g>
<!-- module.observability.aws_iam_policy.adot_cloudwatch_logs&#45;&gt;module.eks.null_resource.configure_kubectl -->
<g id="edge26" class="edge">
<title>module.observability.aws_iam_policy.adot_cloudwatch_logs&#45;&gt;module.eks.null_resource.configure_kubectl</title>
<path fill="none" stroke="black" d="M2811.63,-393.86C2799.59,-393.52 2787.57,-393.22 2776,-393 2466.46,-387.11 2101.99,-388.56 1915.88,-389.91"/>
<polygon fill="black" stroke="black" points="1915.77,-386.41 1905.79,-389.98 1915.82,-393.41 1915.77,-386.41"/>
</g>
<!-- module.observability.aws_iam_role_policy_attachment.adot_cloudwatch_logs -->
<g id="node19" class="node">
<title>module.observability.aws_iam_role_policy_attachment.adot_cloudwatch_logs</title>
<polygon fill="none" stroke="black" points="3489,-417 3111,-417 3111,-381 3489,-381 3489,-417"/>
<text text-anchor="middle" x="3300" y="-395.3" font-family="sans-serif" font-size="14.00">aws_iam_role_policy_attachment.adot_cloudwatch_logs</text>
</g>
<!-- module.observability.aws_iam_role_policy_attachment.adot_cloudwatch_logs&#45;&gt;module.observability.aws_iam_policy.adot_cloudwatch_logs -->
<g id="edge27" class="edge">
<title>module.observability.aws_iam_role_policy_attachment.adot_cloudwatch_logs&#45;&gt;module.observability.aws_iam_policy.adot_cloudwatch_logs</title>
<path fill="none" stroke="black" d="M3110.85,-399C3102.37,-399 3093.92,-399 3085.58,-399"/>
<polygon fill="black" stroke="black" points="3085.47,-395.5 3075.47,-399 3085.47,-402.5 3085.47,-395.5"/>
</g>
<!-- module.observability.helm_release.adot_collector -->
<g id="node20" class="node">
<title>module.observability.helm_release.adot_collector</title>
<polygon fill="none" stroke="black" points="2759.5,-525 2559.5,-525 2559.5,-489 2759.5,-489 2759.5,-525"/>
<text text-anchor="middle" x="2659.5" y="-503.3" font-family="sans-serif" font-size="14.00">helm_release.adot_collector</text>
</g>
<!-- module.observability.kubernetes_namespace.monitoring -->
<g id="node25" class="node">
<title>module.observability.kubernetes_namespace.monitoring</title>
<polygon fill="none" stroke="black" points="2507,-471 2255,-471 2255,-435 2507,-435 2507,-471"/>
<text text-anchor="middle" x="2381" y="-449.3" font-family="sans-serif" font-size="14.00">kubernetes_namespace.monitoring</text>
</g>
<!-- module.observability.helm_release.adot_collector&#45;&gt;module.observability.kubernetes_namespace.monitoring -->
<g id="edge28" class="edge">
<title>module.observability.helm_release.adot_collector&#45;&gt;module.observability.kubernetes_namespace.monitoring</title>
<path fill="none" stroke="black" d="M2566.05,-488.94C2539.87,-483.83 2511.23,-478.24 2484.51,-473.02"/>
<polygon fill="black" stroke="black" points="2484.85,-469.52 2474.37,-471.04 2483.51,-476.39 2484.85,-469.52"/>
</g>
<!-- module.observability.helm_release.grafana -->
<g id="node21" class="node">
<title>module.observability.helm_release.grafana</title>
<polygon fill="none" stroke="black" points="3379,-471 3221,-471 3221,-435 3379,-435 3379,-471"/>
<text text-anchor="middle" x="3300" y="-449.3" font-family="sans-serif" font-size="14.00">helm_release.grafana</text>
</g>
<!-- module.observability.helm_release.loki -->
<g id="node22" class="node">
<title>module.observability.helm_release.loki</title>
<polygon fill="none" stroke="black" points="3009,-471 2878,-471 2878,-435 3009,-435 3009,-471"/>
<text text-anchor="middle" x="2943.5" y="-449.3" font-family="sans-serif" font-size="14.00">helm_release.loki</text>
</g>
<!-- module.observability.helm_release.grafana&#45;&gt;module.observability.helm_release.loki -->
<g id="edge29" class="edge">
<title>module.observability.helm_release.grafana&#45;&gt;module.observability.helm_release.loki</title>
<path fill="none" stroke="black" d="M3220.76,-453C3160.72,-453 3078.36,-453 3019.22,-453"/>
<polygon fill="black" stroke="black" points="3019.2,-449.5 3009.2,-453 3019.2,-456.5 3019.2,-449.5"/>
</g>
<!-- module.observability.helm_release.prometheus -->
<g id="node24" class="node">
<title>module.observability.helm_release.prometheus</title>
<polygon fill="none" stroke="black" points="3038,-525 2849,-525 2849,-489 3038,-489 3038,-525"/>
<text text-anchor="middle" x="2943.5" y="-503.3" font-family="sans-serif" font-size="14.00">helm_release.prometheus</text>
</g>
<!-- module.observability.helm_release.grafana&#45;&gt;module.observability.helm_release.prometheus -->
<g id="edge30" class="edge">
<title>module.observability.helm_release.grafana&#45;&gt;module.observability.helm_release.prometheus</title>
<path fill="none" stroke="black" d="M3220.75,-463.92C3186.97,-468.71 3147.02,-474.49 3111,-480 3090.73,-483.1 3069.08,-486.52 3048.34,-489.86"/>
<polygon fill="black" stroke="black" points="3047.55,-486.45 3038.23,-491.49 3048.66,-493.36 3047.55,-486.45"/>
</g>
<!-- module.observability.kubernetes_storage_class.ebs_sc -->
<g id="node26" class="node">
<title>module.observability.kubernetes_storage_class.ebs_sc</title>
<polygon fill="none" stroke="black" points="2776,-471 2543,-471 2543,-435 2776,-435 2776,-471"/>
<text text-anchor="middle" x="2659.5" y="-449.3" font-family="sans-serif" font-size="14.00">kubernetes_storage_class.ebs_sc</text>
</g>
<!-- module.observability.helm_release.loki&#45;&gt;module.observability.kubernetes_storage_class.ebs_sc -->
<g id="edge31" class="edge">
<title>module.observability.helm_release.loki&#45;&gt;module.observability.kubernetes_storage_class.ebs_sc</title>
<path fill="none" stroke="black" d="M2877.8,-453C2850.59,-453 2817.94,-453 2786.32,-453"/>
<polygon fill="black" stroke="black" points="2786.1,-449.5 2776.1,-453 2786.1,-456.5 2786.1,-449.5"/>
</g>
<!-- module.observability.helm_release.otel_collector -->
<g id="node23" class="node">
<title>module.observability.helm_release.otel_collector</title>
<polygon fill="none" stroke="black" points="3398.5,-525 3201.5,-525 3201.5,-489 3398.5,-489 3398.5,-525"/>
<text text-anchor="middle" x="3300" y="-503.3" font-family="sans-serif" font-size="14.00">helm_release.otel_collector</text>
</g>
<!-- module.observability.helm_release.otel_collector&#45;&gt;module.observability.helm_release.loki -->
<g id="edge32" class="edge">
<title>module.observability.helm_release.otel_collector&#45;&gt;module.observability.helm_release.loki</title>
<path fill="none" stroke="black" d="M3201.37,-493.32C3172.28,-489.15 3140.34,-484.48 3111,-480 3080.96,-475.41 3047.92,-470.1 3019.24,-465.42"/>
<polygon fill="black" stroke="black" points="3019.73,-461.95 3009.29,-463.79 3018.6,-468.86 3019.73,-461.95"/>
</g>
<!-- module.observability.helm_release.otel_collector&#45;&gt;module.observability.helm_release.prometheus -->
<g id="edge33" class="edge">
<title>module.observability.helm_release.otel_collector&#45;&gt;module.observability.helm_release.prometheus</title>
<path fill="none" stroke="black" d="M3201.19,-507C3153.65,-507 3096.49,-507 3048.18,-507"/>
<polygon fill="black" stroke="black" points="3048.02,-503.5 3038.02,-507 3048.02,-510.5 3048.02,-503.5"/>
</g>
<!-- module.observability.helm_release.prometheus&#45;&gt;module.observability.kubernetes_storage_class.ebs_sc -->
<g id="edge34" class="edge">
<title>module.observability.helm_release.prometheus&#45;&gt;module.observability.kubernetes_storage_class.ebs_sc</title>
<path fill="none" stroke="black" d="M2848.99,-489.09C2822,-483.93 2792.39,-478.25 2764.79,-472.97"/>
<polygon fill="black" stroke="black" points="2765.2,-469.49 2754.72,-471.04 2763.88,-476.36 2765.2,-469.49"/>
</g>
<!-- module.observability.kubernetes_namespace.monitoring&#45;&gt;module.eks.aws_eks_node_group.main -->
<g id="edge35" class="edge">
<title>module.observability.kubernetes_namespace.monitoring&#45;&gt;module.eks.aws_eks_node_group.main</title>
<path fill="none" stroke="black" d="M2254.59,-455.25C2172.59,-457.59 2063.24,-462.35 1967,-472 1944.61,-474.25 1920.71,-477.43 1898.02,-480.83"/>
<polygon fill="black" stroke="black" points="1897.4,-477.39 1888.04,-482.35 1898.45,-484.31 1897.4,-477.39"/>
</g>
<!-- module.observability.kubernetes_namespace.monitoring&#45;&gt;module.eks.aws_iam_openid_connect_provider.main -->
<g id="edge36" class="edge">
<title>module.observability.kubernetes_namespace.monitoring&#45;&gt;module.eks.aws_iam_openid_connect_provider.main</title>
<path fill="none" stroke="black" d="M2326.3,-434.96C2297.17,-425.65 2260.38,-414.68 2227,-407 2132.74,-385.33 2025.44,-367.96 1941.12,-355.94"/>
<polygon fill="black" stroke="black" points="1941.6,-352.48 1931.21,-354.54 1940.62,-359.41 1941.6,-352.48"/>
</g>
<!-- module.observability.kubernetes_namespace.monitoring&#45;&gt;module.eks.kubernetes_config_map.aws_auth -->
<g id="edge37" class="edge">
<title>module.observability.kubernetes_namespace.monitoring&#45;&gt;module.eks.kubernetes_config_map.aws_auth</title>
<path fill="none" stroke="black" d="M2267.79,-471.05C2250.91,-473.76 2233.43,-476.57 2216.36,-479.32"/>
<polygon fill="black" stroke="black" points="2215.68,-475.88 2206.36,-480.93 2216.79,-482.8 2215.68,-475.88"/>
</g>
<!-- module.observability.kubernetes_namespace.monitoring&#45;&gt;module.eks.null_resource.configure_kubectl -->
<g id="edge38" class="edge">
<title>module.observability.kubernetes_namespace.monitoring&#45;&gt;module.eks.null_resource.configure_kubectl</title>
<path fill="none" stroke="black" d="M2254.79,-439.78C2154.69,-429.2 2015.15,-414.46 1915.71,-403.96"/>
<polygon fill="black" stroke="black" points="1915.92,-400.46 1905.61,-402.89 1915.19,-407.43 1915.92,-400.46"/>
</g>
<!-- module.observability.kubernetes_storage_class.ebs_sc&#45;&gt;module.observability.kubernetes_namespace.monitoring -->
<g id="edge39" class="edge">
<title>module.observability.kubernetes_storage_class.ebs_sc&#45;&gt;module.observability.kubernetes_namespace.monitoring</title>
<path fill="none" stroke="black" d="M2542.84,-453C2534.33,-453 2525.71,-453 2517.1,-453"/>
<polygon fill="black" stroke="black" points="2517,-449.5 2507,-453 2517,-456.5 2517,-449.5"/>
</g>
<!-- module.vpc.data.aws_availability_zones.available -->
<g id="node27" class="node">
<title>module.vpc.data.aws_availability_zones.available</title>
<polygon fill="none" stroke="black" points="664.5,-214 409.5,-214 409.5,-178 664.5,-178 664.5,-214"/>
<text text-anchor="middle" x="537" y="-192.3" font-family="sans-serif" font-size="14.00">data.aws_availability_zones.available</text>
</g>
<!-- module.vpc.aws_eip.nat -->
<g id="node28" class="node">
<title>module.vpc.aws_eip.nat</title>
<polygon fill="none" stroke="black" points="997.5,-52 903.5,-52 903.5,-16 997.5,-16 997.5,-52"/>
<text text-anchor="middle" x="950.5" y="-30.3" font-family="sans-serif" font-size="14.00">aws_eip.nat</text>
</g>
<!-- module.vpc.aws_internet_gateway.main -->
<g id="node29" class="node">
<title>module.vpc.aws_internet_gateway.main</title>
<polygon fill="none" stroke="black" points="1050.5,-106 850.5,-106 850.5,-70 1050.5,-70 1050.5,-106"/>
<text text-anchor="middle" x="950.5" y="-84.3" font-family="sans-serif" font-size="14.00">aws_internet_gateway.main</text>
</g>
<!-- module.vpc.aws_vpc.main -->
<g id="node37" class="node">
<title>module.vpc.aws_vpc.main</title>
<polygon fill="none" stroke="black" points="590.5,-160 483.5,-160 483.5,-124 590.5,-124 590.5,-160"/>
<text text-anchor="middle" x="537" y="-138.3" font-family="sans-serif" font-size="14.00">aws_vpc.main</text>
</g>
<!-- module.vpc.aws_internet_gateway.main&#45;&gt;module.vpc.aws_vpc.main -->
<g id="edge40" class="edge">
<title>module.vpc.aws_internet_gateway.main&#45;&gt;module.vpc.aws_vpc.main</title>
<path fill="none" stroke="black" d="M850.41,-101C772.87,-111.18 667.39,-125.02 601,-133.73"/>
<polygon fill="black" stroke="black" points="600.16,-130.31 590.7,-135.08 601.07,-137.25 600.16,-130.31"/>
</g>
<!-- module.vpc.aws_nat_gateway.main -->
<g id="node30" class="node">
<title>module.vpc.aws_nat_gateway.main</title>
<polygon fill="none" stroke="black" points="1473.5,-69 1306.5,-69 1306.5,-33 1473.5,-33 1473.5,-69"/>
<text text-anchor="middle" x="1390" y="-47.3" font-family="sans-serif" font-size="14.00">aws_nat_gateway.main</text>
</g>
<!-- module.vpc.aws_nat_gateway.main&#45;&gt;module.vpc.aws_eip.nat -->
<g id="edge41" class="edge">
<title>module.vpc.aws_nat_gateway.main&#45;&gt;module.vpc.aws_eip.nat</title>
<path fill="none" stroke="black" d="M1306.45,-47.79C1219.18,-44.4 1083.88,-39.14 1008.01,-36.2"/>
<polygon fill="black" stroke="black" points="1007.84,-32.69 997.72,-35.8 1007.57,-39.68 1007.84,-32.69"/>
</g>
<!-- module.vpc.aws_nat_gateway.main&#45;&gt;module.vpc.aws_subnet.public -->
<g id="edge42" class="edge">
<title>module.vpc.aws_nat_gateway.main&#45;&gt;module.vpc.aws_subnet.public</title>
<path fill="none" stroke="black" d="M1306.28,-47.8C1261.76,-49.22 1207.1,-56.2 1163,-78 1142.43,-88.17 1147.39,-104.49 1127,-115 1097.33,-130.29 1061.36,-137.48 1029.73,-140.68"/>
<polygon fill="black" stroke="black" points="1029.27,-137.21 1019.62,-141.58 1029.9,-144.18 1029.27,-137.21"/>
</g>
<!-- module.vpc.aws_route_table.private -->
<g id="node31" class="node">
<title>module.vpc.aws_route_table.private</title>
<polygon fill="none" stroke="black" points="1878.5,-80 1705.5,-80 1705.5,-44 1878.5,-44 1878.5,-80"/>
<text text-anchor="middle" x="1792" y="-58.3" font-family="sans-serif" font-size="14.00">aws_route_table.private</text>
</g>
<!-- module.vpc.aws_route_table.private&#45;&gt;module.vpc.aws_nat_gateway.main -->
<g id="edge43" class="edge">
<title>module.vpc.aws_route_table.private&#45;&gt;module.vpc.aws_nat_gateway.main</title>
<path fill="none" stroke="black" d="M1705.19,-59.64C1640.01,-57.85 1550.5,-55.39 1483.69,-53.55"/>
<polygon fill="black" stroke="black" points="1483.68,-50.05 1473.59,-53.27 1483.49,-57.04 1483.68,-50.05"/>
</g>
<!-- module.vpc.aws_route_table.public -->
<g id="node32" class="node">
<title>module.vpc.aws_route_table.public</title>
<polygon fill="none" stroke="black" points="1473.5,-123 1306.5,-123 1306.5,-87 1473.5,-87 1473.5,-123"/>
<text text-anchor="middle" x="1390" y="-101.3" font-family="sans-serif" font-size="14.00">aws_route_table.public</text>
</g>
<!-- module.vpc.aws_route_table.public&#45;&gt;module.vpc.aws_internet_gateway.main -->
<g id="edge44" class="edge">
<title>module.vpc.aws_route_table.public&#45;&gt;module.vpc.aws_internet_gateway.main</title>
<path fill="none" stroke="black" d="M1306.45,-101.79C1236.9,-99.09 1136.83,-95.2 1060.66,-92.24"/>
<polygon fill="black" stroke="black" points="1060.68,-88.74 1050.55,-91.85 1060.41,-95.73 1060.68,-88.74"/>
</g>
<!-- module.vpc.aws_route_table_association.private -->
<g id="node33" class="node">
<title>module.vpc.aws_route_table_association.private</title>
<polygon fill="none" stroke="black" points="2219,-136 1967,-136 1967,-100 2219,-100 2219,-136"/>
<text text-anchor="middle" x="2093" y="-114.3" font-family="sans-serif" font-size="14.00">aws_route_table_association.private</text>
</g>
<!-- module.vpc.aws_route_table_association.private&#45;&gt;module.vpc.aws_route_table.private -->
<g id="edge45" class="edge">
<title>module.vpc.aws_route_table_association.private&#45;&gt;module.vpc.aws_route_table.private</title>
<path fill="none" stroke="black" d="M1995.75,-99.97C1961.57,-93.57 1923.11,-86.37 1888.95,-79.97"/>
<polygon fill="black" stroke="black" points="1889.44,-76.5 1878.97,-78.1 1888.15,-83.38 1889.44,-76.5"/>
</g>
<!-- module.vpc.aws_route_table_association.private&#45;&gt;module.vpc.aws_subnet.private -->
<g id="edge46" class="edge">
<title>module.vpc.aws_route_table_association.private&#45;&gt;module.vpc.aws_subnet.private</title>
<path fill="none" stroke="black" d="M2025.92,-136.07C1997.01,-143.23 1962.55,-150.75 1931,-155 1599.98,-199.58 1200.88,-199.9 1032.59,-197.63"/>
<polygon fill="black" stroke="black" points="1032.62,-194.13 1022.57,-197.49 1032.52,-201.13 1032.62,-194.13"/>
</g>
<!-- module.vpc.aws_route_table_association.public -->
<g id="node34" class="node">
<title>module.vpc.aws_route_table_association.public</title>
<polygon fill="none" stroke="black" points="1915,-146 1669,-146 1669,-110 1915,-110 1915,-146"/>
<text text-anchor="middle" x="1792" y="-124.3" font-family="sans-serif" font-size="14.00">aws_route_table_association.public</text>
</g>
<!-- module.vpc.aws_route_table_association.public&#45;&gt;module.vpc.aws_route_table.public -->
<g id="edge47" class="edge">
<title>module.vpc.aws_route_table_association.public&#45;&gt;module.vpc.aws_route_table.public</title>
<path fill="none" stroke="black" d="M1668.81,-120.97C1609.23,-117.55 1538.72,-113.49 1483.65,-110.33"/>
<polygon fill="black" stroke="black" points="1483.73,-106.83 1473.55,-109.75 1483.33,-113.82 1483.73,-106.83"/>
</g>
<!-- module.vpc.aws_route_table_association.public&#45;&gt;module.vpc.aws_subnet.public -->
<g id="edge48" class="edge">
<title>module.vpc.aws_route_table_association.public&#45;&gt;module.vpc.aws_subnet.public</title>
<path fill="none" stroke="black" d="M1668.84,-130.93C1651.44,-131.31 1633.77,-131.68 1617,-132 1404.62,-136.04 1154.09,-139.43 1029.71,-141.03"/>
<polygon fill="black" stroke="black" points="1029.48,-137.53 1019.52,-141.16 1029.57,-144.53 1029.48,-137.53"/>
</g>
<!-- module.vpc.aws_subnet.private&#45;&gt;module.vpc.data.aws_availability_zones.available -->
<g id="edge49" class="edge">
<title>module.vpc.aws_subnet.private&#45;&gt;module.vpc.data.aws_availability_zones.available</title>
<path fill="none" stroke="black" d="M878.29,-196C822.5,-196 743.2,-196 675.19,-196"/>
<polygon fill="black" stroke="black" points="674.8,-192.5 664.8,-196 674.8,-199.5 674.8,-192.5"/>
</g>
<!-- module.vpc.aws_subnet.private&#45;&gt;module.vpc.aws_vpc.main -->
<g id="edge50" class="edge">
<title>module.vpc.aws_subnet.private&#45;&gt;module.vpc.aws_vpc.main</title>
<path fill="none" stroke="black" d="M878.4,-186.52C839.33,-181.32 789.99,-174.77 746,-169 697.14,-162.59 641.8,-155.41 600.5,-150.07"/>
<polygon fill="black" stroke="black" points="600.94,-146.59 590.58,-148.78 600.05,-153.54 600.94,-146.59"/>
</g>
<!-- module.vpc.aws_subnet.public&#45;&gt;module.vpc.data.aws_availability_zones.available -->
<g id="edge51" class="edge">
<title>module.vpc.aws_subnet.public&#45;&gt;module.vpc.data.aws_availability_zones.available</title>
<path fill="none" stroke="black" d="M881.21,-151.11C841.71,-156.37 791.05,-163.09 746,-169 722.94,-172.03 698.44,-175.22 674.65,-178.32"/>
<polygon fill="black" stroke="black" points="673.97,-174.88 664.5,-179.64 674.87,-181.82 673.97,-174.88"/>
</g>
<!-- module.vpc.aws_subnet.public&#45;&gt;module.vpc.aws_vpc.main -->
<g id="edge52" class="edge">
<title>module.vpc.aws_subnet.public&#45;&gt;module.vpc.aws_vpc.main</title>
<path fill="none" stroke="black" d="M881.09,-142C803.05,-142 676.52,-142 600.87,-142"/>
<polygon fill="black" stroke="black" points="600.55,-138.5 590.55,-142 600.55,-145.5 600.55,-138.5"/>
</g>
</g>
</svg>
